<svg id="Layer_1" data-name="Layer 1" xmlns="http://www.w3.org/2000/svg" viewBox="0 0 140 70"><title>avery</title><polygon points="132.26 22.596 126.084 33.277 119.914 22.596 112.178 22.596 122.207 39.973 118.06 47.136 125.794 47.136 139.997 22.596 132.26 22.596" fill="#1d4594"/><path d="M139.67356,43.49892A2.42942,2.42942,0,1,0,140,44.71448a2.39065,2.39065,0,0,0-.32645-1.21556h0Zm-0.72027,2.6037a1.96227,1.96227,0,1,1,.57513-1.38814,1.89179,1.89179,0,0,1-.57513,1.38814h0Zm-2.49058-.08775h0.64708v-1.023a0.479,0.479,0,0,1,.07984-0.00957,0.35391,0.35391,0,0,1,.25492.14513,5.91626,5.91626,0,0,1,.50028.88786H138.71q-0.4142-.73919-0.42085-0.75229a1.252,1.252,0,0,0-.20669-0.26449,0.71526,0.71526,0,0,0-.22-0.121,0.995,0.995,0,0,0,.5323-0.27738,0.66272,0.66272,0,0,0,.16884-0.45245,0.68328,0.68328,0,0,0-.22124-0.53355,1.05535,1.05535,0,0,0-.71528-0.1992h-1.16358v2.6h-0.00082Zm0.64708-2.14792h0.30607a0.59745,0.59745,0,0,1,.37469.09066,0.29006,0.29006,0,0,1,.10979.23413,0.28531,0.28531,0,0,1-.11478.23413,0.65328,0.65328,0,0,1-.39507.09066h-0.2807V43.867h0Z" fill="#1d4594"/><polygon points="64.141 1.841 6.445 10.463 8.601 24.894 10.489 21.311 11.21 19.941 10.211 13.251 61.354 5.608 63.48 19.84 66.83 19.84 64.141 1.841" fill="#df1d37"/><polygon points="11.71 45.696 15.065 68.159 72.762 59.534 71.319 49.863 67.966 49.863 68.999 56.751 17.854 64.393 15.061 45.696 11.71 45.696" fill="#df1d37"/><path d="M16.56246,30.36857l3.83631,7.28129H12.72532Zm-3.63-7.77034L0,47.14643H7.72336l2.21986-4.20975H23.18253l2.2157,4.20975h7.72543l-12.932-24.5482H12.93242Z" fill="#1d4594"/><path d="M104.74218,31.45438c0,1.78445-1.33324,2.90561-3.64043,2.90561H93.94439V28.47932h7.1216c2.276,0,3.6762.97935,3.6762,2.906v0.069Zm6.82508-.42v-0.0707a7.58757,7.58757,0,0,0-2.16954-5.70227c-1.64556-1.683-4.23595-2.66317-7.98159-2.66317H87.15173V47.13812h6.79265V39.68133h5.652l4.97784,7.4626h7.841l-5.88649-8.58376a7.75049,7.75049,0,0,0,5.03856-7.52582" fill="#1d4594"/><polygon points="132.262 22.598 126.085 33.279 119.915 22.598 112.18 22.598 122.208 39.975 118.061 47.138 125.796 47.138 139.998 22.598 132.262 22.598" fill="#1d4594"/><polygon points="66.775 37.441 78.498 37.441 78.498 32.086 66.775 32.086 66.775 28.374 81.993 28.374 81.993 22.598 60.055 22.598 60.055 47.144 82.168 47.144 82.168 41.364 66.775 41.364 66.775 37.441" fill="#1d4594"/><polygon points="42.709 37.961 34.895 22.598 27.039 22.598 39.524 47.146 45.894 47.146 58.381 22.598 50.521 22.598 42.709 37.961" fill="#1d4594"/></svg>